<?xml version="1.0" standalone="no"?>
<!DOCTYPE svg PUBLIC "-//W3C//DTD SVG 20010904//EN"
 "http://www.w3.org/TR/2001/REC-SVG-20010904/DTD/svg10.dtd">
<svg version="1.0" xmlns="http://www.w3.org/2000/svg"
 width="626.000000pt" height="626.000000pt" viewBox="0 0 626.000000 626.000000"
 preserveAspectRatio="xMidYMid meet">

<g transform="translate(0.000000,626.000000) scale(0.100000,-0.100000)"
fill="#000000" stroke="none">
<path d="M4159 4959 c-304 -29 -605 -162 -889 -393 -106 -85 -293 -269 -424
-416 -185 -209 -372 -413 -403 -443 l-30 -28 -54 37 c-80 54 -225 121 -304
140 -102 23 -216 16 -288 -20 -64 -31 -141 -104 -176 -168 l-24 -43 35 37 c71
76 164 89 244 36 45 -31 55 -46 134 -203 97 -194 129 -244 207 -321 95 -93
182 -140 433 -237 172 -66 413 -192 435 -227 17 -28 -113 -209 -250 -346 -60
-61 -148 -139 -195 -174 -84 -61 -108 -81 -81 -65 10 5 12 4 7 -4 -4 -6 -12
-9 -17 -6 -5 4 -19 -1 -31 -10 -23 -16 -23 -16 7 -10 131 29 402 143 513 216
17 11 32 19 32 16 0 -9 -60 -117 -98 -177 -43 -68 -114 -161 -165 -217 -21
-23 -39 -45 -40 -50 -1 -4 -4 -7 -7 -6 -3 0 -11 -5 -18 -13 -19 -21 -6 -17 44
12 24 14 41 31 38 36 -4 7 -10 4 -16 -6 -5 -9 -13 -16 -18 -16 -6 0 -2 9 7 20
12 14 20 16 30 9 16 -14 87 27 77 43 -4 7 -2 8 5 4 17 -11 133 76 244 183 108
104 108 104 77 -25 -16 -67 -17 -87 -7 -113 6 -17 17 -31 23 -31 7 0 15 -6 17
-12 3 -8 6 -5 6 5 1 10 6 15 11 12 9 -6 14 8 11 28 -1 5 3 6 8 3 9 -6 91 124
91 145 0 8 3 9 9 3 21 -23 -29 -261 -76 -359 l-14 -30 20 25 c36 45 108 174
139 250 123 302 120 681 -8 1040 -35 99 -86 318 -75 328 9 9 191 -313 244
-434 37 -83 39 -85 44 -52 14 81 18 241 8 328 -15 134 -33 198 -99 350 -11 27
253 -190 399 -327 36 -35 69 -59 73 -55 4 4 6 0 4 -8 -2 -8 3 -14 10 -12 8 1
11 -2 8 -6 -3 -5 4 -18 17 -28 21 -19 21 -19 7 0 -14 18 -13 19 2 13 19 -7 37
11 21 22 -12 7 -13 41 -2 41 4 0 10 -14 14 -31 4 -17 9 -28 12 -26 8 9 -38
158 -77 248 -44 102 -108 203 -174 277 -26 28 -44 52 -38 52 32 0 409 -169
575 -257 55 -29 104 -50 109 -46 6 3 8 1 5 -4 -6 -9 52 -53 69 -53 10 0 3 17
-14 36 -19 20 -22 26 -22 45 0 5 -5 7 -12 3 -7 -4 -8 -3 -4 5 10 16 -105 186
-198 293 -42 48 -112 115 -157 150 -44 34 -76 64 -71 66 5 1 56 -9 113 -24
172 -44 196 -47 171 -19 -5 6 -5 29 0 53 7 31 14 42 27 42 14 0 21 12 28 51
10 47 9 51 -11 59 -11 5 -16 9 -11 9 6 1 -10 15 -35 31 -25 17 -51 28 -58 25
-7 -3 -10 0 -7 5 13 21 -93 60 -192 70 -123 13 -172 21 -155 27 7 3 12 23 12
49 0 24 5 44 10 44 6 0 10 19 10 42 0 23 7 49 15 58 15 16 -4 15 -241 -24 -12
-2 -27 0 -35 5 -10 6 -10 9 -1 9 7 0 12 14 12 35 0 19 -5 35 -10 35 -7 0 -7 6
-1 19 13 23 -9 36 -30 18 -11 -10 -11 -9 0 5 7 9 19 14 27 11 8 -3 14 -1 12 5
-2 5 0 9 3 8 4 0 15 9 25 21 27 31 175 119 266 159 93 40 264 88 373 106 l80
13 -60 6 c-80 9 -181 8 -286 -2z m271 -845 c0 -8 -6 -11 -15 -8 -8 4 -15 15
-15 26 0 17 3 18 15 8 8 -7 15 -19 15 -26z m-1602 -1082 c2 -8 -4 -39 -14 -70
l-18 -57 -13 50 c-20 77 -18 91 14 90 14 0 28 -6 31 -13z"/>
<path d="M4470 4146 c0 -2 8 -10 18 -17 15 -13 16 -12 3 4 -13 16 -21 21 -21
13z"/>
<path d="M4425 3930 c27 -12 43 -12 25 0 -8 5 -22 9 -30 9 -10 0 -8 -3 5 -9z"/>
<path d="M4121 3164 c0 -11 3 -14 6 -6 3 7 2 16 -1 19 -3 4 -6 -2 -5 -13z"/>
<path d="M1430 1275 l0 -165 115 0 115 0 0 25 c0 25 -1 25 -85 25 l-85 0 0
140 0 140 -30 0 -30 0 0 -165z"/>
<path d="M1760 1417 c-50 -33 -75 -82 -75 -147 0 -108 76 -177 184 -166 87 8
140 60 149 145 6 71 -19 134 -66 166 -50 34 -144 35 -192 2z m149 -41 c34 -18
51 -54 51 -110 0 -119 -161 -157 -206 -49 -47 111 51 212 155 159z"/>
<path d="M2070 1275 l0 -165 30 0 c30 0 30 1 30 55 l0 55 33 0 c28 0 41 -9 81
-55 41 -47 52 -55 83 -55 l35 0 -48 57 c-28 32 -44 58 -37 60 59 20 87 91 59
150 -23 48 -65 63 -176 63 l-90 0 0 -165z m204 89 c22 -21 20 -50 -4 -74 -16
-16 -33 -20 -80 -20 l-60 0 0 55 0 55 64 0 c45 0 69 -5 80 -16z"/>
<path d="M2390 1275 l0 -165 125 0 125 0 0 30 0 30 -96 0 -95 0 3 38 3 37 88
3 c85 3 87 3 87 27 0 25 -1 25 -90 25 l-90 0 0 40 0 40 95 0 95 0 0 30 0 30
-125 0 -125 0 0 -165z"/>
<path d="M2690 1275 l0 -165 30 0 30 0 0 115 c0 63 3 115 8 115 4 0 27 -29 52
-65 25 -35 50 -64 56 -65 5 0 32 30 60 67 l49 68 3 -118 3 -117 29 0 30 0 0
165 0 165 -33 0 c-29 0 -38 -8 -82 -70 -28 -38 -52 -70 -55 -70 -3 0 -29 32
-58 70 -47 63 -56 70 -87 70 l-35 0 0 -165z"/>
<path d="M3210 1275 c0 -103 4 -165 10 -165 6 0 10 62 10 165 0 103 -4 165
-10 165 -6 0 -10 -62 -10 -165z"/>
<path d="M3310 1276 c0 -104 4 -166 10 -166 6 0 10 25 10 55 l0 55 68 0 c108
0 161 39 162 117 0 22 -10 43 -29 65 -29 32 -31 33 -125 36 l-96 4 0 -166z
m201 115 c20 -20 29 -39 29 -61 0 -22 -9 -41 -29 -61 -27 -27 -35 -29 -105
-29 l-76 0 0 90 0 90 76 0 c70 0 78 -2 105 -29z"/>
<path d="M3664 1430 c-48 -19 -67 -77 -39 -116 13 -20 30 -26 142 -54 52 -13
73 -33 73 -70 0 -36 -32 -59 -88 -67 -39 -5 -87 12 -124 44 -10 9 -18 10 -22
4 -9 -14 40 -49 85 -61 48 -13 112 -3 144 22 20 15 25 29 25 63 0 55 -17 69
-118 91 -108 24 -137 60 -87 109 33 34 119 36 159 4 37 -29 48 -13 13 17 -23
20 -39 24 -85 23 -31 0 -67 -4 -78 -9z"/>
<path d="M3920 1330 c0 -125 16 -182 59 -204 54 -29 112 -24 153 13 l33 29 5
136 c4 105 2 136 -7 136 -10 0 -13 -32 -13 -124 0 -119 -1 -126 -25 -154 -32
-39 -74 -48 -117 -28 -54 26 -62 48 -66 184 -2 67 -8 122 -13 122 -5 0 -9 -49
-9 -110z"/>
<path d="M4250 1275 c0 -210 18 -225 22 -18 l3 147 64 -97 c35 -53 67 -94 71
-92 5 3 35 46 67 96 l58 91 3 -146 c4 -206 22 -190 22 19 0 125 -3 165 -12
165 -7 0 -40 -43 -73 -95 -33 -51 -63 -94 -66 -94 -4 -1 -35 42 -69 94 -34 52
-69 95 -76 95 -11 0 -14 -32 -14 -165z"/>
</g>
</svg>
